<?xml version="1.0" encoding="UTF-8" standalone="no"?>
<svg viewBox="0 0 249 306" xmlns="http://www.w3.org/2000/svg" xmlns:xlink="http://www.w3.org/1999/xlink">
<defs>
<linearGradient id="linearGradient4944">
<stop offset="0" stop-color="#3c7605"/>
<stop offset="1" stop-color="#4e9a06"/>
</linearGradient>
<linearGradient id="linearGradient5350">
<stop offset="0" stop-color="#f2f5f8"/>
<stop offset="1" stop-color="#fff"/>
</linearGradient>
<linearGradient gradientUnits="userSpaceOnUse" id="linearGradient5927" x1="215.31401" x2="165.2251" y1="33.52858" y2="96.28209">
<stop offset="0" stop-color="#3465a4"/>
<stop offset="1" stop-color="#729fcf"/>
</linearGradient>
<linearGradient gradientUnits="userSpaceOnUse" id="linearGradient5933" x1="81.68854" x2="203.15937" xlink:href="#linearGradient5350" y1="937.78382" y2="1026.92979"/>
<linearGradient gradientUnits="userSpaceOnUse" id="linearGradient5935" x1="197.43677" x2="176.57358" xlink:href="#linearGradient5350" y1="1022.67176" y2="992.17478"/>
<linearGradient gradientUnits="userSpaceOnUse" id="linearGradient5937" x1="206.44236" x2="179.16826" xlink:href="#linearGradient5350" y1="866.87148" y2="864.85119"/>
<linearGradient gradientUnits="userSpaceOnUse" id="linearGradient5939" x1="64.70027" x2="48.25158" xlink:href="#linearGradient4944" y1="152.0583" y2="155.1519"/>
<linearGradient gradientTransform="matrix(.63227,-.25795,.25795,.63227,-22.07577,48.42838)" gradientUnits="userSpaceOnUse" id="linearGradient5941" x1="63.02089" x2="46.5722" xlink:href="#linearGradient4944" y1="151.96991" y2="155.06351"/>
<linearGradient gradientTransform="matrix(-.9175,.39774,.39774,.9175,61.16408,-22.03882)" gradientUnits="userSpaceOnUse" id="linearGradient5943" x1="63.02089" x2="46.5722" xlink:href="#linearGradient4944" y1="151.96991" y2="155.06351"/>
<linearGradient gradientTransform="matrix(-.44947,.51408,.51408,.44947,-.33637,22.32517)" gradientUnits="userSpaceOnUse" id="linearGradient5945" x1="63.02089" x2="46.5722" xlink:href="#linearGradient4944" y1="151.96991" y2="155.06351"/>
<linearGradient gradientTransform="matrix(-.16675,.38787,.38787,.16675,-10.57882,64.47331)" gradientUnits="userSpaceOnUse" id="linearGradient5947" x1="63.02089" x2="46.5722" xlink:href="#linearGradient4944" y1="151.96991" y2="155.06351"/>
<linearGradient gradientTransform="matrix(.41781,-.06068,.06068,.41781,5.62614,57.81008)" gradientUnits="userSpaceOnUse" id="linearGradient5949" x1="63.02089" x2="46.5722" xlink:href="#linearGradient4944" y1="151.96991" y2="155.06351"/>
</defs>
<title>White Dove</title>
<g transform="translate(-3.3099204e-007,-746.36219)">
<path d="m80.09676,879.24112c-3.51355-.19114-7.82262.9403-12.05379,3.42395-8.46233,4.96728-10.90046,10.90486-11.21251,16.8901-.07244,1.38941.09125,3.41301 1.93036,4.96539 18.77784,13.53143 9.87594,17.34353 16.76538,36.89051 6.23076,14.13297 18.36345,22.21838 31.43514,29.48535 10.15485,4.90155 19.9177,6.88669 29.05713,7.7069 15.46339,3.52632 22.71193,11.57093 29.79702,24.28128 6.75048,12.7979 9.33014,19.1724 15.13004,46.7718 5.12897,13.4615 57.46467-37.936 39.4773-41.3511-23.834-6.5535-27.09777-11.8181-38.01246-21.42217-12.12084-10.66533-17.93611-24.70334-28.87127-38.7244-.25646-.34482-.53144-.6891-.80284-1.03313-.0912-.11422-.19496-.23121-.29967-.3248-3.8893-4.83877-9.23286-9.57351-15.67868-13.73595l-.12115-.0984c-3.35522-2.69216-8.28759-5.67969-15.15167-8.96067-15.51187-7.41469-15.03874-11.38958-21.38226-25.09956-4.0467-8.746-6.28792-12.63421-9.35348-14.70083-2.4215-2.47224-5.15357-4.04866-7.82752-4.4436-.873-.27887-1.79916-.46455-2.8251-.52036l3e-005-.00031z" fill="#729fcf"/>
<path d="m79.89948,877.10337c-3.51843.0468-8.87497,1.23155-12.92857,3.99553-8.10721,5.52795-13.60835,13.33806-9.10268,19.70536 1.2564,1.77551 3.04543,3.47705 5.28125,3.98661 16.98105,12.40335 8.39874,15.55716 16.59375,34.59375 .18117.31536.38633.61007.625.90625 4.18959,9.20433 15.1791,18.85349 29.84375,25.3125v-54.96875c-3.33322-3.59852-5.08705-8.04747-9.03125-15.25-4.62865-8.45244-7.458-11.92658-10.1875-14.15625-2.73933-2.27165-5.64922-3.31796-8.25-3.8125-.88985-.21922-1.81639-.32617-2.84375-.3125z" fill="#3465a4"/>
<path d="m149.86823,933.44712v40.65625c10.97703,3.39247 17.34223,10.45962 23.90625,20.5625 7.60015,12.31223 10.59773,18.51203 18.25,45.65623 6.0272,13.084 54.77083-41.74606 36.59375-43.93748-24.22248-4.92734-27.83606-9.96826-39.375-18.8125-12.81406-9.82158-19.54832-23.43774-31.40625-36.6875-.27918-.32668-.58097-.64379-.875-.96875-.0987-.10774-.23295-.2262-.34375-.3125-1.9508-2.11645-4.21657-4.17087-6.75-6.15625z" fill="#adc8e3"/>
<g fill="url(#linearGradient5927)" transform="translate(-27.91302,734.95994)">
<path d="m130.1139,171.10207c0,0 6.65365-27.37117 13.29477-38.86505 5.78613-11.89438 17.54528-24.38433 35.52343-43.38574 14.07156-18.89695 16.75405-25.28883 31.57421-59.5202 4.66512-12.22287 8.52537,13.63608 8.00019,21.75754-.6135,9.48744-5.41801,18.24018-9.67035,26.63303-17.42256,34.38724-63.90601,97.10764-63.90601,97.10764l-14.81624-3.72722z" fill="url(#linearGradient5927)"/>
<path d="m130.63496,185.38507c0,0 9.66795-26.57268 17.26453-37.40987 6.77808-11.31315 19.56223-22.67786 39.09949-39.95924 15.63324-17.53148 18.85002-23.64971 36.53028-56.37451 5.68819-11.74171 7.34388,14.34356 6.1314,22.37862-1.41641,9.38652-6.94927,17.662-11.90103,25.62943-20.28828,32.64409-71.95567,90.85234-71.95567,90.85234l-15.169-5.11677z" fill="url(#linearGradient5927)"/>
</g>
<path d="m78.61823,878.41585c-3.51839-.0496-7.77846,1.25435-11.90625,3.90625-8.25559,5.30381-12.91968,14.01356-10.4375,19.46875 .90082,1.97977 2.62273,2.38027 4.84375,3.84375 16.81349,12.64063 7.98577,15.77728 15.65625,35.03125 .17246.32017.36328.63485.59375.9375 4.17172,9.8738 15.96497,20.44878 31.78125,27.3125 10.34389,4.48889 20.64315,6.62948 29.34375,6.53125 15.77184,2.64116 23.15916,10.64759 30.75,23.0625 7.26004,12.5158 10.09414,18.7814 17,46.125 5.66655,13.2442 55.89148-40.2178 37.78125-42.9062-24.07842-5.58907-27.5514-10.71806-38.84375-19.87505-12.54022-10.16892-18.9157-23.96163-30.40625-37.53125-.27012-.33422-.55873-.66706-.84375-1-.0957-.11035-.2041-.22324-.3125-.3125-1.45353-1.66632-3.10183-3.30164-4.90625-4.90625 .004-6.40309-7.58628-16.16322-19.28125-23.96875-9.74902-6.50675-19.79805-9.96632-26.46875-9.625-1.02576-2.09961-2.11869-4.43291-3.5625-7.25-4.39539-8.57604-6.88055-11.65663-9.9375-14.3125-2.96546-2.19422-5.31233-3.83798-8-4.125-.88352-.24351-1.81641-.39177-2.84375-.40625z" fill="#fff"/>
<path d="m102.76786-799.1875c0,1.40537-1.39911,2.54464-3.125,2.54464s-3.125-1.13927-3.125-2.54464 1.39911-2.54464 3.125-2.54464 3.125,1.13927 3.125,2.54464z" fill="#2e3436" transform="translate(-28.18088,1688.51855)"/>
<path d="m102.76786-799.1875c0,1.40537-1.39911,2.54464-3.125,2.54464s-3.125-1.13927-3.125-2.54464 1.39911-2.54464 3.125-2.54464 3.125,1.13927 3.125,2.54464z" fill="#888a85" transform="matrix(.49208,-.26128,.25505,.48034,225.32901,1298.58153)"/>
<path d="m58.08698,901.1346c-.66366.0286-1.32438.12039-1.9375.3125 .04451.1133.07464.23307.125.34375 .90082,1.97977 2.57809,2.38027 4.84375,3.84375 5.12142,3.79703 9.99735,8.54185 11.21875,15.03125 .80352,4.75255.41363,10.41738 4.21875,19.96875 6.79449,13.87077 19.02143,21.51496 32.375,28.25 10.34389,4.4889 19.06289,5.99556 29.53125,6.78125 5.88048,1.24788 10.63448,2.40698 14.65625,4.875-5.58554-11.6833-12.15576-19.54777-26.3125-23.84375-11.92424-2.28201-18.59905-4.4706-28.28125-10.25-12.39851-7.40075-23.93035-19.94156-25.71748-26.37532s-.94141-8.27189-3.68877-12.65593c-2.77989-4.43594-7.38113-6.43873-11.03125-6.28125z" fill="#f2f5f8"/>
<path d="m182.82842,979.97787c.47739.42704.96258.86301 1.46875,1.28125-.49815-.41628-.98934-.8536-1.46875-1.28125z" fill="url(#linearGradient5933)"/>
<path d="m181.49323,978.60337c-3.94457,5.55061-9.23732,11.42719-14.5625,16.28125 .77472,1.16755 1.54255,2.36574 2.3125,3.625 7.26004,12.51578 10.09414,18.78138 17,46.12498 5.66655,13.2442 55.89148-40.2177 37.78125-42.9062-24.07842-5.58903-27.5514-10.71803-38.84375-19.87503-1.2927-1.04825-2.51347-2.12895-3.6875-3.25z" fill="url(#linearGradient5935)"/>
<path d="m186.62484,993.00391c4.60429.73435 9.70572,2.25368 14.86915,4.63422 15.38475,7.09297 25.50172,18.84567 22.62085,26.24207-.61973,1.5911-1.78163,2.8561-3.39218,3.7835 3.05479-.7958 5.25804-2.3625 6.15725-4.7367 2.64908-6.9946-6.85277-18.1937-21.2246-24.98298-6.85905-3.24019-13.58236-4.85467-19.03047-4.94011z" fill="#3465a4"/>
<path d="m182.29557,996.16314c4.47136,1.82775 9.25721,4.59046 13.90022,8.26776 13.83415,10.9564 21.24091,25.5706 16.56963,32.6385-1.00487,1.5205-2.4791,2.5751-4.32561,3.1737 3.27257-.1284 5.86969-1.2587 7.34338-3.5334 4.34152-6.7012-2.57652-20.5952-15.46089-31.0009-6.14915-4.9662-12.54905-8.20189-18.02673-9.54566z" fill="#3465a4"/>
<path d="m177.93457,999.47597c4.08812,2.95533 8.24962,6.91593 12.02217,11.74403 11.24058,14.3859 14.93559,30.7386 8.28066,36.5283-1.43159,1.2455-3.21957,1.9099-5.26723,2.0278 3.38143.7132 6.33805.2622 8.44947-1.6087 6.22026-5.5118 2.83386-21.0268-7.58148-34.6243-4.9708-6.4895-10.65764-11.3321-15.90359-14.06713z" fill="#3465a4"/>
<path d="m101.55044,907.09631c14.10346-54.37516 63.59141-78.16949 101.52894-122.8576 23.94653-28.4737 29.35709-53.94469 31.75414-14.40676 4.55833,56.03569-5.42749,111.83647-45.90892,155.89019-46.95311,46.097-54.24713-15.64102-87.37416-18.62583z" fill="#adc8e3"/>
<path d="m230.05573,749.50962c-4.27502.31196-12.00217,16.92268-26.96875,34.71875-37.34476,43.98984-85.88338,67.74599-100.84375,120.34375 .22924-.0217.44916-.0503.6875-.0625 .17277-.009.35397.004.53125,0 15.60077-50.09192 62.82815-70.19043 100.1875-110.28125 23.62273-25.58633 29.78288-49.16561 30.3125-12.09375 .58658,16.80025-.21818,33.4964-2.875,49.75 4.25568-20.2377 5.45414-41.11351 3.75-62.0625-.89889-14.82673-2.21624-20.49968-4.78125-20.3125z" fill="#3465a4"/>
<path d="m79.39948,878.44712c.31647.0899.63765.20649.96875.34375 .19957.0828.39016.1507.59375.25 12.21559,9.08633 5.90741,23.69932 21.1875,26.09375l.8125-.625c-1.02576-2.09961-2.11869-4.43291-3.5625-7.25-4.39539-8.57604-6.88055-11.65663-9.9375-14.3125-2.96546-2.19422-5.31233-3.83798-8-4.125-.6532-.18003-1.33712-.31466-2.0625-.375z" fill="#f2f5f8"/>
<path d="m104.21198,904.47835c-.44264-.008-.86433.01-1.28125.0312-3.03213.15515-5.33898,1.07935-6.625,2.875-3.38968,4.73297 1.54122,13.92633 11.3125,22.3125-6.95894-7.94108-9.37095-13.81193-8.04077-18.76792 .24162-.90022 1.19367-3.62487 4.04077-3.54458 22.30368,2.39079 32.48736,51.23826 65.75,29.3125-8.38173,4.40674-15.03143,4.61738-20.75,2.46875 .94109-6.34508-6.82003-16.77687-19.1875-25.03125-9.13971-6.10008-18.57911-9.53358-25.21875-9.65625v5e-005zm7.8125,3c5.74751,1.32828 12.75589,4.79359 19.5625,10.0625 9.01832,6.98096 15.29515,15.26998 17,21.625-13.79644-5.20493-22.1969-24.23093-36.5625-31.6875z" fill="#729fcf"/>
<path d="m103.40291,904.49484c15.54072-50.23035 62.84609-70.12932 100.25238-110.27048 23.62273-25.58633 29.78428-49.16757 30.3139-12.09571 1.83622,52.59087-9.9162,104.33248-49.67359,143.77033-45.89687,41.06827-50.09267-16.48446-80.89269-21.40134l.0158-.0301-.00019-4e-005-.0156.0273z" fill="url(#linearGradient5937)"/>
<path d="m214.86998,801.15707c5.42895-3.40491 10.89397-7.86637 15.76849-13.20474 14.52394-15.90602 18.54946-33.2855 9.02893-38.82408-2.04802-1.19145-4.54851-1.74797-7.37067-1.71309 4.60198-1.00659 8.69505-.76339 11.71783,1.02939 8.90511,5.28156 5.24988,21.76158-8.19053,36.77974-6.41457,7.16749-13.91942,12.66871-20.95405,15.93278z" fill="#3465a4"/>
<path d="m198.44656,841.81106c5.89325-1.7182 12.28686-4.51342 18.59585-8.40715 18.79804-11.60163 29.79423-28.18502 24.5937-37.03372-1.11871-1.90351-2.88523-3.30192-5.17476-4.19694 4.15709.48069 7.3466,2.08153 8.98247,4.92634 4.8193,8.38082-5.47729,24.15937-23.00624,35.2034-8.36579,5.2708-16.86682,8.46466-23.99102,9.50807z" fill="#3465a4"/>
<path d="m186.90466,868.47476c5.49941.22067 11.73308-.36306 18.21027-1.94294 19.29918-4.70739 33.40129-16.1221 31.52418-25.48012-.40382-2.01308-1.50292-3.77084-3.19081-5.23797 3.39327,1.65213 5.64304,4.00894 6.21588,7.00684 1.68764,8.83185-11.58912,19.74154-29.65015,24.33064-8.61975,2.19013-16.75806,2.50421-23.10937,1.32355z" fill="#3465a4"/>
<path d="m175.32173,888.86557c4.69767,1.30304 10.22968,2.07249 16.2196,2.04607 17.84734-.0788 32.8696-6.90341 33.57199-15.22494 .15104-1.79013-.36209-3.50465-1.4563-5.09203 2.52203,2.09039 3.88078,4.54668 3.63114,7.20676-.73542,7.83662-14.91898,14.40019-31.66697,14.62977-7.99306.10953-15.10404-1.27516-20.29946-3.56563z" fill="#3465a4"/>
<path d="m162.74684,906.58453c4.21369,1.99592 9.2811,3.6251 14.88632,4.5788 16.70108,2.84157 31.68914-1.13798 33.49186-8.86825 .38776-1.66292.14397-3.36309-.66071-5.03836 2.07065,2.38272 3.00309,4.92037 2.40334,7.38734-1.76684,7.26768-15.93462,11.13815-31.62837,8.61837-7.48996-1.20262-13.94924-3.66978-18.49244-6.6779z" fill="#3465a4"/>
<path d="m146.24036,923.31676c3.92554,2.51579 8.7445,4.7764 14.18283,6.43546 16.20385,4.94324 31.57642,2.90273 34.34795-4.53528 .59621-1.60006.57068-3.31746-.0144-5.08145 1.75069,2.62677 2.35271,5.26242 1.44398,7.63304-2.67708,6.98384-17.22216,9.02042-32.46781,4.52452-7.2761-2.1457-13.36901-5.41462-17.49259-8.97629z" fill="#3465a4"/>
<path d="m60.11823,902.04087-1.84375.75c.1219.27279.11078.6037-.15625.78125-1.87411,1.09739-7.77257,3.12766-10.28125,3.65625l-5.5625,2.34375c1.56547-.18206 3.99746-.83466 6.5625-1.625 5.13007-1.58068 7.49054-2.30247 10.1875-3.25 .49778-.38387.94107-1.3865 1.09375-2.65625z" fill="#c17d11"/>
<path d="m6.02448,837.60337c-.886,8.48645 5.50514,15.54648 12.09425,19.93967 5.36182,4.05375 12.5456,6.70532 15.28649,13.35207 2.51387,4.93866.41177,10.55334 1.99665,15.6945 1.48525,6.11632 4.97631,11.69838 10.054,15.46686 5.41965,4.1839 10.72224,9.81734 11.17048,17.00355 .32803,4.25302-.81757,8.46391-3.07062,12.0746-2.70219,3.90932 7.1925,3.93193 7.48546-.002 .03327-.45273.06297-.90592.08841-1.35939 .32562-5.80434-.04683-11.65536-2.57386-17.20075-2.23823-5.49615-6.50508-9.67201-11.22656-13.0655-5.93358-4.24363-10.26456-10.9332-10.56695-18.34554-.23217-3.83439.41814-7.86829-1.54445-11.39411-2.90204-6.72466-10.10453-9.49704-15.80011-13.29635-6.6372-4.1125-13.44739-10.45029-13.39318-18.86761z" fill="#3c7605"/>
<path d="m16.83698,855.54085c.58232.43705 1.12573.94836 1.71875,1.34375l.03125.0312c5.20994,3.93893 12.58659,6.6562 15.5,13.625l.03125.0625c1.31866,2.6322 1.4186,5.39997 1.40625,8.0625-.01245,2.68427-.11603,5.28371.625,7.6875 .00021.0104.00021.0208 0,.0312 1.44516,5.95119 4.85992,11.3788 9.78125,15.03125 5.49235,4.24002 11.26734,10.94257 11.73745,18.47945 .56734,7.86291-2.0358,11.7815-2.0358,11.7815s4.02525-3.00873 3.77763-12.05248c-.16621-2.63503-.62896-4.3426-1.57303-6.77092-2.16087-5.30625-6.28074-9.37177-10.9375-12.71875-6.1009-4.36327-10.59243-11.24508-10.90625-18.9375-.23924-3.9512.33789-7.81685-1.46875-11.0625l-.03125-.0625c-2.74609-6.36519-9.67353-9.10778-15.46875-12.96875h-.03125c-.7305-.4531-1.42715-1.05482-2.15625-1.5625v5e-005z" fill="#356804"/>
<g transform="translate(-29.68079,734.95994)">
<path d="m35.43527,150.0053c4.05401.42853 8.13974.90547 12.21986.63278 3.22494-.30224 6.20496-1.67644 9.34697-2.34458 2.54856-.38829 5.23026.33488 7.34206,1.77302 1.95867,1.88384 2.68378,4.97198 1.82759,7.54386-.88935,2.59683-3.63049,3.9443-6.19241,4.29597-3.08952.44936-6.32975.20692-9.19918-1.08765-4.03606-1.71828-7.84279-3.99332-11.16144-6.8713-1.46006-1.24135-2.86782-2.54812-4.18344-3.9421z" fill="url(#linearGradient5939)"/>
<path d="m64.61688,151.48182c-.001.0843.0068.16633 0,.25-.32775,4.01622-7.23989,5.80116-15.4375,3.96875-3.25551-.7277-6.21788-1.92613-8.59375-3.34375 2.33154,1.73673 5.35848,3.28386 8.75,4.375 8.10302,2.60695 15.20098,1.55543 15.84375-2.375 .14688-.89813-.06599-1.88235-.5625-2.875z" fill="#274d03" fill-opacity=".46637"/>
</g>
<g transform="translate(-28.88529,735.93221)">
<path d="m37.93819,134.50952c2.67378-.77478 5.38011-1.52714 7.88952-2.75202 1.96108-1.02297 3.4908-2.66053 5.30506-3.89346 1.51123-.90291 3.39334-1.13741 5.09954-.77285 1.72435.68587 2.9794,2.45137 3.10147,4.29836 .10754,1.87131-1.27803,3.43036-2.80715,4.31356-1.83751,1.08105-3.94876,1.76358-6.09696,1.68523-2.99512-.0453-5.98886-.50183-8.82953-1.46545-1.24336-.40825-2.47053-.87136-3.66194-1.41337z" fill="url(#linearGradient5941)"/>
<path d="m56.76981,127.9157c.02111.0536.0472.10341.06449.15807 .82876,2.62389-3.08118,5.53544-8.73698,6.49143-2.24608.37965-4.42824.38606-6.29612.10259 1.92216.49667 4.2351.69408 6.66092.50914 5.79579-.44187 10.0124-2.93763 9.40495-5.58854-.13881-.60575-.52728-1.17314-1.09726-1.67269z" fill="#274d03" fill-opacity=".46637"/>
</g>
<g transform="translate(-26.85236,735.31349)">
<path d="m89.8211,128.93573c-3.5491,2.00562-7.10805,4.06827-10.96001,5.44091-3.07909,1.00538-6.35983.92983-9.50836,1.56652-2.49274.65741-4.66556,2.38753-6.03112,4.54697-1.0478,2.50746-.48481,5.62923 1.32369,7.64838 1.84884,2.02886 4.89977,2.1749 7.3902,1.47858 3.01336-.81654 5.88983-2.32775 8.00763-4.65681 3.01965-3.18182 5.60744-6.78325 7.50761-10.74375 .84586-1.71966 1.61773-3.47855 2.27037-5.2808z" fill="url(#linearGradient5943)"/>
<path d="m63.63431,141.89714c.03445.0769.05992.15531.09944.22937 1.89812,3.55452 8.94994,2.44296 15.74241-2.49879 2.69749-1.96251 4.93879-4.24032 6.55481-6.48597-1.44842,2.5208-3.61027,5.14422-6.28799,7.49428-6.39762,5.61477-13.32822,7.47315-15.48124,4.12264-.49198-.76561-.68814-1.7533-.62741-2.86153z" fill="#274d03" fill-opacity=".46637"/>
</g>
<g transform="translate(-26.85236,734.07606)">
<path d="m61.56126,107.06195c-1.60186,2.27671-3.1931,4.5915-5.16718,6.56646-1.6049,1.52204-3.65079,2.43636-5.40651,3.75131-1.34512,1.13564-2.1787,2.83931-2.38856,4.57136 .08808,1.85365 1.34973,3.61445 3.05673,4.33028 1.73473.71 3.6595-.0935 4.9918-1.2525 1.61966-1.3863 2.95142-3.16102 3.57563-5.21803 .93075-2.84719 1.47221-5.82674 1.48432-8.82638 .0181-1.30854-.02094-2.61961-.14623-3.9225z" fill="url(#linearGradient5945)"/>
<path d="m49.20401,122.72741c.04379.0374.08245.0783.12852.11237 2.21199,1.63669 6.23641-1.11446 8.97899-6.15234 1.08916-2.00068 1.80457-4.06225 2.14368-5.92083-.15514,1.97922-.7203,4.23071-1.68376,6.46468-2.30189,5.33738-6.03279,8.51371-8.34227,7.07753-.52773-.32818-.93803-.87999-1.22517-1.58141z" fill="#274d03" fill-opacity=".46637"/>
</g>
<g transform="translate(-27.2943,734.78316)">
<path d="m41.94051,102.56537c-.50981,1.64389-1.00613,3.30815-1.79227,4.84523-.655,1.20046-1.68494,2.12717-2.46803,3.23444-.57559.92376-.74228,2.08451-.53661,3.14342 .40407,1.07385 1.48095,1.87006 2.62128,1.96683 1.15553.0881 2.13527-.75043 2.69888-1.68548 .68948-1.1234 1.13577-2.42061 1.11213-3.74945 .0066-1.852-.24108-3.70789-.80396-5.475-.23801-.77331-.51012-1.53725-.83142-2.27999z" fill="url(#linearGradient5947)"/>
<path d="m37.64708,114.13025 .09697.0417c1.61242.5426 3.45737-1.84077 4.11362-5.32594 .26061-1.38406.28976-2.73291.1361-3.89084 .28483,1.19394.38016,2.62599.23784,4.12341-.34005,3.57764-1.93151,6.15538-3.56319,5.74927-.37285-.0928-.7191-.33948-1.02133-.69759z" fill="#274d03" fill-opacity=".46637"/>
</g>
<g transform="translate(-28.70851,735.13672)">
<path d="m28.82724,118.39881c1.71982-.067 3.45583-.11563 5.14401-.47715 1.32908-.32198 2.49078-1.07698 3.76301-1.5468 1.04126-.31689 2.20559-.17748 3.1752.29524 .93268.66824 1.42304,1.9145 1.22138,3.04102-.214,1.13896-1.27751,1.86829-2.32657,2.17069-1.26357.37523-2.63209.47056-3.90954.1038-1.79059-.473-3.51915-1.19253-5.08036-2.1936-.68536-.43005-1.35284-.89061-1.98711-1.3932z" fill="url(#linearGradient5949)"/>
<path d="m41.10928,117.24489c.0047.0353.01293.0691.01517.10445 .10678,1.69792-2.67288,2.86314-6.20914,2.59499-1.40435-.10648-2.71479-.42744-3.79349-.87556 1.07954.58414 2.43812,1.04687 3.92135,1.29695 3.54374.5975 6.44555-.27257 6.47559-1.95376 .0069-.38416-.1418-.78246-.40948-1.16707z" fill="#274d03" fill-opacity=".46637"/>
</g>
<path d="m56.49323,893.85337c-.10714.0264-.18859.0933-.25.21875-3.87697,4.44238-9.85452,9.80441-15.28125,14.3125-.9573,1.08723-.27318,1.38122 1.3125,1.1875h.03125l5.53125-2.34375c2.50868-.52859 8.40714-2.55886 10.28125-3.65625 .26703-.17755.27814-.50846.15625-.78125l1.84375-.75c.11648-.97615.06538-2.1041-.28125-3.28125-.87017-2.9551-2.59379-5.09087-3.34375-4.90625zm3.46875,9.125c-.06919.2665-.15754.49865-.25.71875 .09284-.21642.18052-.45551.25-.71875z" fill="#c17d11"/>
<path d="m57.57222,902.40739c.61808-.22785 1.06801.79527.53179,1.15181-2.38471,1.39638-11.35323,4.35706-11.44468,3.74162 4.57289-1.75437 8.3129-3.3671 10.91289-4.89343z" fill="#8f5902"/>
<path d="m56.18778,895.55489c.84979-.6784 2.0836.76036 1.42857,1.60715-3.01106,3.45824-15.52053,12.74049-15.98214,11.78572 6.25171-5.13073 11.27271-9.61611 14.55357-13.39287z" fill="#e9b96e"/>
</g>
</svg>
